grf
version=1
nRows=5
nColumns=73
inDegrees=yes
endheader
time	ground_force_1_vx	ground_force_1_vy	ground_force_1_vz	ground_force_1_px	ground_force_1_py	ground_force_1_pz	ground_moment_1_mx	ground_moment_1_my	ground_moment_1_mz	ground_force_2_vx	ground_force_2_vy	ground_force_2_vz	ground_force_2_px	ground_force_2_py	ground_force_2_pz	ground_moment_2_mx	ground_moment_2_my	ground_moment_2_mz	ground_force_3_vx	ground_force_3_vy	ground_force_3_vz	ground_force_3_px	ground_force_3_py	ground_force_3_pz	ground_moment_3_mx	ground_moment_3_my	ground_moment_3_mz	ground_force_4_vx	ground_force_4_vy	ground_force_4_vz	ground_force_4_px	ground_force_4_py	ground_force_4_pz	ground_moment_4_mx	ground_moment_4_my	ground_moment_4_mz	ground_force_5_vx	ground_force_5_vy	ground_force_5_vz	ground_force_5_px	ground_force_5_py	ground_force_5_pz	ground_moment_5_mx	ground_moment_5_my	ground_moment_5_mz	ground_force_6_vx	ground_force_6_vy	ground_force_6_vz	ground_force_6_px	ground_force_6_py	ground_force_6_pz	ground_moment_6_mx	ground_moment_6_my	ground_moment_6_mz	ground_force_7_vx	ground_force_7_vy	ground_force_7_vz	ground_force_7_px	ground_force_7_py	ground_force_7_pz	ground_moment_7_mx	ground_moment_7_my	ground_moment_7_mz	ground_force_8_vx	ground_force_8_vy	ground_force_8_vz	ground_force_8_px	ground_force_8_py	ground_force_8_pz	ground_moment_8_mx	ground_moment_8_my	ground_moment_8_mz
2.937000	0.000000	0.000000	0.000000	0.000000	0.000000	0.000000	0.000000	0.000000	0.000000	-6.472568	410.988498	-10.064881	0.446903	0.000000	0.417468	-0.000000	1.667122	-0.000000	-8.377180	363.910890	-8.949504	0.463877	0.000000	0.422288	-0.000000	1.643816	0.000000	1.707872	46.163215	-1.046982	0.345488	0.000000	0.405476	-0.000000	0.066992	-0.000000	-8.565302	362.662090	-9.069896	0.463124	0.000000	0.418585	-0.000000	1.658040	-0.000000	1.358645	45.610105	-1.207555	0.346913	0.000000	0.403881	-0.000000	0.086312	0.000000	0.000000	0.000000	0.000000	0.000000	0.000000	0.000000	0.000000	0.000000	0.000000	-6.742724	405.613110	-10.859529	0.448564	0.000000	0.417253	-0.000000	1.718507	-0.000000
2.938000	0.000000	0.000000	0.000000	0.000000	0.000000	0.000000	0.000000	0.000000	0.000000	-6.330488	411.247733	-10.046952	0.446295	0.000000	0.417462	-0.000000	1.670287	-0.000000	-8.413984	363.638317	-8.948759	0.463322	0.000000	0.422295	-0.000000	1.648345	0.000000	1.878390	46.750525	-1.034381	0.345728	0.000000	0.405557	-0.000000	0.064376	-0.000000	-8.583896	362.132650	-9.046212	0.462651	0.000000	0.418605	-0.000000	1.661430	-0.000000	1.568599	46.375163	-1.199846	0.347612	0.000000	0.403901	-0.000000	0.084624	0.000000	0.000000	0.000000	0.000000	0.000000	0.000000	0.000000	0.000000	0.000000	0.000000	-6.567594	405.812449	-10.828735	0.447959	0.000000	0.417248	-0.000000	1.716782	-0.000000
2.939000	0.000000	0.000000	0.000000	0.000000	0.000000	0.000000	0.000000	0.000000	0.000000	-6.196916	411.534701	-10.029474	0.445671	0.000000	0.417458	-0.000000	1.674669	-0.000000	-8.454198	363.475397	-8.952998	0.462734	0.000000	0.422301	-0.000000	1.654080	0.000000	2.048136	47.259291	-1.017438	0.345800	0.000000	0.405585	-0.000000	0.061474	-0.000000	-8.611619	361.721401	-9.030297	0.462159	0.000000	0.418623	-0.000000	1.665063	-0.000000	1.775998	47.056759	-1.186447	0.348102	0.000000	0.403913	-0.000000	0.081891	0.000000	0.000000	0.000000	0.000000	0.000000	0.000000	0.000000	0.000000	0.000000	0.000000	-6.402655	406.047022	-10.800658	0.447362	0.000000	0.417242	-0.000000	1.714782	-0.000000
2.940000	0.000000	0.000000	0.000000	0.000000	0.000000	0.000000	0.000000	0.000000	0.000000	-6.070754	411.848143	-10.010688	0.445025	0.000000	0.417456	-0.000000	1.680536	-0.000000	-8.495962	363.419919	-8.960083	0.462110	0.000000	0.422308	-0.000000	1.661071	0.000000	2.215695	47.689053	-0.996434	0.345687	0.000000	0.405570	-0.000000	0.058498	-0.000000	-8.645922	361.426388	-9.021588	0.461646	0.000000	0.418638	0.000000	1.669244	-0.000000	1.978706	47.653521	-1.168039	0.348386	0.000000	0.403915	-0.000000	0.078215	0.000000	0.000000	0.000000	0.000000	0.000000	0.000000	0.000000	0.000000	0.000000	0.000000	-6.247527	406.313936	-10.775293	0.446767	0.000000	0.417236	-0.000000	1.712940	-0.000000
2.941000	0.000000	0.000000	0.000000	0.000000	0.000000	0.000000	0.000000	0.000000	0.000000	-5.950883	412.187775	-9.988923	0.444353	0.000000	0.417458	-0.000000	1.687855	-0.000000	-8.536904	363.470104	-8.968146	0.461447	0.000000	0.422317	-0.000000	1.669110	0.000000	2.379226	48.040103	-0.971482	0.345377	0.000000	0.405519	-0.000000	0.055599	-0.000000	-8.685008	361.245351	-9.018597	0.461108	0.000000	0.418653	0.000000	1.674277	-0.000000	2.175637	48.164561	-1.145077	0.348466	0.000000	0.403907	-0.000000	0.073837	0.000000	0.000000	0.000000	0.000000	0.000000	0.000000	0.000000	0.000000	0.000000	0.000000	-6.101543	406.610398	-10.751497	0.446169	0.000000	0.417230	-0.000000	1.711832	-0.000000
